<?xml version="1.0" encoding="utf-8"?>
<!-- Generator: Adobe Illustrator 25.3.1, SVG Export Plug-In . SVG Version: 6.00 Build 0)  -->
<svg version="1.1" id="Layer_1" xmlns="http://www.w3.org/2000/svg" xmlns:xlink="http://www.w3.org/1999/xlink" x="0px" y="0px"
	 viewBox="0 0 307.7 395.1" style="enable-background:new 0 0 307.7 395.1;" xml:space="preserve">
<style type="text/css">
	.st0{fill:#FFFFFF;}
	.st1{fill:#991F33;}
	.st2{fill:#91172C;}
	.st3{fill:#027C4E;}
	.st4{fill:#066752;}
	.st5{fill:#FABE2C;}
	.st6{fill:#B5782F;}
</style>
<path class="st0" d="M160,383.4c1.2-0.9,2.4-1.9,3.6-3l1.9-1.6c1.3-1.1,2.7-2.3,4.1-3.5c1.2-1,2.4-2.1,3.6-3.1
	c3.2-2.8,6.5-5.8,10-9.1c1.2-1.1,2.3-2.2,3.5-3.4c1.2-1.2,2.5-2.4,3.7-3.6c0.8-0.8,1.7-1.7,2.6-2.6c0.9-0.9,1.8-1.8,2.6-2.7
	c4.7-4.8,9.7-10.1,15-15.9c2.7-2.9,5.4-6.1,8.2-9.3l0.1-0.1v-0.1l-5.7,6.5V205.5l-40.9-35.4l-19.6-17L92,205.7v126.6
	c1,1.1,1.9,2.2,2.9,3.2c17.8,19.9,37.1,37.8,57.6,53.6c1.7-1.3,3.7-2.8,5.8-4.5L160,383.4z"/>
<polygon class="st0" points="112.8,218.5 112.8,218.7 112.8,218.5 "/>
<polygon class="st0" points="154.5,284.5 150.6,295.2 158.6,295.2 154.6,284.5 "/>
<path class="st0" d="M119.9,201l34.2-93.6l8.6,23.4l25.7,70.2h21V48l-0.4-0.2c-0.7-0.3-1.4-0.6-2-0.9l-0.7-0.3c-2-0.9-4-1.9-6-3
	c-2.3-1.2-4.6-2.4-6.8-3.6c-1.4-0.8-2.9-1.6-4.3-2.4c-2.2-1.2-4.5-2.6-6.7-3.9l-2.1-1.2l-4.4-2.7l-2.2-1.4l-2.2-1.4
	c-1.4-0.9-2.8-1.9-4.2-2.8c-4.4-3-8.9-6.2-13.4-9.6c-16.2,12.4-33.8,23.2-52.6,32.2c-0.9,0.4-1.8,0.8-2.6,1.2v153.1L119.9,201z"/>
<polygon class="st0" points="145.8,69.3 145.8,49.9 167.7,49.9 167.7,49.9 167.7,53.3 167.7,56.7 153.4,56.7 153.4,66.3 166.3,66.3 
	166.3,69.6 166.3,69.7 166.3,69.7 166.3,73.1 166.3,73.1 153.4,73.1 153.4,85.3 145.8,85.3 "/>
<path class="st1" d="M103,255.5V44.9c-1,0.6-2,1.1-2.9,1.6c-1.9,1.1-3.8,2.1-5.6,3l-1.6,0.8l0,0L91.5,51l-1.2,0.6L89.2,52h-0.1
	c-1.7,0.8-3.3,1.5-4.9,2.1h0l-1.3,0.5l-1.7,0.7c-1.1,0.4-2.3,0.9-3.4,1.3L76,57.2l-1.3,0.4h-0.1l-0.4,0.1l-1.4,0.5h-0.1
	c-0.5,0.2-1.1,0.3-1.6,0.5c-2.8,0.8-5.4,1.5-8.1,2.2l-0.8,0.2l-0.8,0.2l-1.8,0.4l-1.8,0.4l-2,0.4l-1.5,0.2L53,62.9h-0.1l-1.7,0.2
	l-1.8,0.2c-0.5,0.1-1,0.1-1.4,0.2l-1.2,0.1h-0.3l-1.1,0.1h-0.4h-0.1c-0.3,0-0.7,0.1-1,0.1L42.1,64l-1.6,0.1c-0.4,0-0.8,0-1.2,0.1
	c-0.9,0-1.7,0.1-2.6,0.1h-2.5c-6.6,0-13.2-0.6-19.8-1.7c-4,50.4-0.5,97.7,10.5,141c9.1,36.8,24.5,71.8,45.4,103.5c1,1.5,2,3,3,4.5
	s2,2.9,3,4.3l1.4,1.9l1.6,2.3l1,1.4l0.9,1.2c0.5,0.7,1,1.4,1.6,2.1s1,1.3,1.5,1.9c1.1,1.4,2.2,2.8,3.3,4.2c0.3,0.4,0.7,0.8,1,1.2
	l1.4,1.8l1.4,1.6l0,0.1l1.4,1.7l1.5,1.7c1.9,2.2,3.8,4.3,5.6,6.3c1,1.1,2,2.1,2.9,3.1v-92.8L103,255.5z"/>
<path class="st2" d="M50.7,127c0.9-2.2,2.1-4.1,3.8-5.8c1.7-1.6,3.6-2.9,5.8-3.8c2.4-0.9,4.9-1.4,7.4-1.3c2.8-0.1,5.6,0.5,8.1,1.7
	c2.1,1.1,4,2.7,5.4,4.7l-2.5,2.1l-3,2.5c-1.7-2.7-4.8-4.4-8-4.2c-1.5,0-2.9,0.3-4.3,0.8c-1.3,0.5-2.4,1.3-3.3,2.3
	c-1,1.1-1.7,2.3-2.2,3.6c-0.5,1.5-0.8,3.1-0.8,4.7c0,1.6,0.2,3.2,0.8,4.8c0.5,1.4,1.2,2.6,2.2,3.7c0.9,1,2,1.8,3.3,2.4
	c3.1,1.2,6.6,1.1,9.6-0.3c1.3-0.8,2.4-1.8,3.2-3l0,0l5.2,4.5c-0.7,1-1.5,1.9-2.3,2.7c-0.9,0.8-1.9,1.5-3,2.1
	c-1.2,0.6-2.5,1.1-3.8,1.4c-1.6,0.3-3.1,0.5-4.7,0.5c-2.5,0-5.1-0.4-7.4-1.3c-4.4-1.7-7.8-5.2-9.4-9.6c-0.9-2.5-1.3-5.1-1.3-7.7
	C49.3,132,49.8,129.4,50.7,127z"/>
<path class="st3" d="M273.3,62.5h-1.2h-0.9c-1.4,0-2.8-0.1-4.3-0.2l-0.8,0h-0.5h-0.3c-0.7,0-1.5-0.1-2.3-0.2l-1.1-0.1h-0.1l-0.6,0
	l-1.6-0.2l-1.2-0.1l-0.4,0l-0.5-0.1l-0.3,0l-1.2-0.2l-1.5-0.2l-0.5-0.1l-1.7-0.3l-0.7-0.1l-0.6-0.1c-0.4-0.1-0.9-0.1-1.3-0.2
	l-1.1-0.2l-1.9-0.4l-1-0.2l-0.9-0.2l-0.3-0.1l-1.1-0.3l-0.6-0.1l-2-0.5l-1-0.3l-1-0.3l-0.5-0.1l-1.4-0.4l-2-0.6l-1.9-0.6l-0.3-0.1
	l-0.5-0.1l-0.8-0.3l-1.2-0.4c-1.1-0.4-2.3-0.8-3.4-1.2l-1.6-0.6l-0.4-0.2l-1.2-0.5l-1.4-0.6l-0.3-0.1l-1-0.4l-0.9-0.4l-1.9-0.8
	l-1.2-0.5l-1-0.5l-0.6-0.3l-2-0.9c-0.9-0.4-1.6-0.8-2.5-1.2l-1.2-0.6c0,0-2.5-1.3-2.6-1.4l-3-1.6v151.7l0.1,21.9l0,0l-0.1,49.4v9.4
	l0,0v71.2l3.4-3.6l0.3-0.3l0.8-0.9c0.7-0.8,1.3-1.4,2.1-2.3l0.4-0.5l0.2-0.2l0.3-0.4l0.8-0.9l1-1.1l2.2-2.5l0.7-0.9
	c0.1-0.1,0.2-0.3,0.4-0.4c0.4-0.4,0.7-0.8,1-1.2l1.1-1.2l0.7-0.8c0.8-1,1.5-1.8,2.3-2.8c0.1-0.1,0.3-0.3,0.4-0.5
	c1-1.2,2.1-2.6,3.1-3.9c0.6-0.7,1-1.3,1.6-2l1.5-1.9c0.9-1.2,1.8-2.4,2.7-3.6l1.4-1.8l0.7-1l0.3-0.4l1.3-1.8c1-1.4,5.5-5.2,11.9-16
	c19.2-32.4,28.1-54.1,38-91.9c11.3-43.3,15-90.7,10.8-141c-6.9,1.2-13.8,1.8-20.8,1.8h-1.7L273.3,62.5z"/>
<polygon class="st4" points="259.1,148.8 259.1,152 235.9,152 235.9,116.6 258.6,116.6 258.6,119.9 258.6,123.2 243.5,123.2 
	243.5,130.9 256.7,130.9 256.7,134.3 256.7,137.3 243.5,137.3 243.5,145.2 259.1,145.2 "/>
<path class="st5" d="M307.6,92.3c-0.1-2.2-0.1-4.5-0.2-6.8c-0.1-2.3-0.2-4.5-0.3-6.9s-0.3-4.6-0.4-6.9c-0.3-4.7-0.7-9.4-1.2-14.1
	l-0.3-2.7c-0.1-0.9-0.2-1.8-0.3-2.7c-0.1-0.9-0.2-1.7-0.3-2.6c-0.1-0.9-0.2-1.9-0.3-2.9l-0.2,0.1l-0.2,0.1c-0.5,0.2-1.5,0.5-2.9,0.9
	l-0.5,0.1l-0.2,0.1l-1,0.2l-0.2,0.1l-0.6,0.1l-0.8,0.2l-0.3,0.1l0,0c-0.9,0.2-1.8,0.4-2.8,0.6l-0.3,0.1l0,0l-1,0.2l-0.5,0.1
	l-1.4,0.2l-0.5,0.1l-0.8,0.1c-0.9,0.1-1.7,0.3-2.7,0.4l-1.2,0.1l-0.7,0.1l0,0c-2.5,0.3-5.3,0.5-8.3,0.7h-0.7l0,0h-0.4
	c-2,0.1-4.1,0.1-6.3,0.1H269l-2.8-0.1h-0.6h-0.4h-0.5h-0.9c-0.9,0-1.9-0.1-2.9-0.2l-1.5-0.1h-0.1l-0.9-0.1H258l-0.7-0.1l-1.6-0.2
	h-0.2l-0.7-0.1l-1-0.1l-1-0.1h-0.3h-0.1h-0.1l-0.4-0.1l-1.6-0.2c-0.5-0.1-0.9-0.1-1.4-0.2l-1.5-0.2c-0.5-0.1-1-0.2-1.5-0.2l-2.1-0.4
	l-1-0.2c-0.3-0.1-0.7-0.1-1-0.2l-1-0.2l-1-0.2l-1-0.2l-1.1-0.2l-1-0.2c-0.1,0-0.2,0-0.3-0.1l-1.4-0.3l-0.5-0.1h-0.1
	c-0.3-0.1-0.6-0.2-1-0.3s-0.7-0.2-1.1-0.3s-0.7-0.2-1.1-0.3s-0.9-0.3-1.4-0.4s-0.7-0.2-1-0.3l-0.4-0.1l-0.4-0.1l-0.6-0.2
	c-0.6-0.2-1.1-0.3-1.7-0.5l-1.1-0.4l-0.8-0.2l-1.3-0.4l-1.4-0.5l0,0l-0.8-0.3l-0.7-0.2l-0.4-0.1l-2.1-0.8l-0.6-0.2
	c-1.2-0.5-2.4-0.9-3.5-1.4l-0.6-0.2l-0.4-0.2l-1-0.4l-0.4-0.2l-0.4-0.2c-0.6-0.3-1.2-0.5-1.8-0.8l-1-0.4l-0.9-0.4l-1.9-0.9
	c-1.8-0.9-3.6-1.8-5.4-2.7l-1.5-0.8c-1.6-0.9-3.2-1.8-4.8-2.7c-0.8-0.5-1.6-0.9-2.4-1.4s-1.7-1.1-2.6-1.6
	c-6.7-4.2-13.2-8.8-19.4-13.7c-1-0.8-2-1.6-3-2.4c-3.8-3.2-7.7-6.6-11.6-10.2l-0.1-0.1c-11.8,11.1-24.8,20.8-38.7,28.9
	c-3.9,2.3-7.7,4.3-11.5,6.2l-1.6,0.8l-0.8,0.4l-1.2,0.6l0,0l-2.4,1.1l-0.5,0.2L95.8,39c-1.6,0.7-3.3,1.4-4.9,2c-2.6,1-5.2,2-7.8,2.8
	l-1.6,0.5l-1.3,0.4l-0.9,0.3c-1.2,0.4-2.3,0.7-3.4,1c-0.6,0.2-1.2,0.3-1.8,0.5l-1.4,0.4h-0.1l-0.9,0.2l-1.2,0.3l-1.8,0.4l-1.3,0.3
	c-0.6,0.1-1.1,0.3-1.7,0.4l-0.8,0.2L63.1,49L61,49.4l-1.9,0.3h-0.2L57.3,50c-1.3,0.2-2.7,0.4-4,0.5l-1.6,0.2l-1.6,0.2L48.6,51
	c-1.2,0.1-2.3,0.2-3.4,0.2l-1.4,0.1L42,51.4c-1.2,0-2.3,0.1-3.4,0.1h-1.7c-18.9,0-31.2-4-33.3-4.7l0,0l-0.2-0.1l0,0l0,0l0,0
	c-2.2,18.4-3.4,37-3.4,55.6c0,3,0,6,0.1,9c0,0.7,0,1.3,0,2c0,0.9,0.1,1.8,0.1,2.7l0,0c0,0.9,0.1,1.8,0.1,2.7
	c0.3,6.6,0.7,13.1,1.2,19.5c0.1,0.8,0.1,1.6,0.2,2.5l0.3,3.1c0.1,0.8,0.2,1.7,0.3,2.5l0.3,2.7c0.3,2.3,0.6,4.7,0.9,7l0.5,3.9
	c0.2,1.6,0.5,3.3,0.7,4.9l0.4,2.4c0.1,0.7,0.2,1.3,0.3,2c0.2,1,0.3,1.9,0.5,2.8c0.1,0.7,0.2,1.4,0.4,2.1s0.2,1.2,0.3,1.9
	s0.3,1.4,0.4,2.1c0.5,2.7,1.1,5.3,1.6,7.9c0.1,0.7,0.3,1.4,0.5,2.1l0.6,2.5c0.1,0.6,0.3,1.2,0.4,1.8s0.2,1,0.4,1.5
	c0.2,0.8,0.4,1.6,0.6,2.4s0.4,1.6,0.6,2.5c1.3,4.9,2.6,9.7,4,14.4c0.2,0.8,0.5,1.6,0.7,2.3c0.2,0.5,0.3,1,0.5,1.5s0.4,1.1,0.5,1.7
	c0.4,1.2,0.8,2.5,1.2,3.7c0.5,1.5,1,3,1.5,4.5c0.6,1.7,1.2,3.4,1.8,5.1c0.2,0.5,0.4,1.1,0.6,1.6c0.8,2.2,1.7,4.4,2.5,6.5
	c0.6,1.4,1.1,2.9,1.7,4.2c2,4.9,4.1,9.7,6.3,14.4c0.6,1.3,1.2,2.7,1.9,4c0.3,0.7,0.6,1.3,1,2l1,1.9c0.6,1.3,1.3,2.6,1.9,3.8
	c0.3,0.6,0.6,1.3,1,1.9c0.6,1.1,1.1,2.2,1.7,3.2L42,276c0.7,1.2,1.4,2.5,2,3.7l1,1.8c1,1.8,2.1,3.6,3.1,5.4c0.7,1.2,1.4,2.3,2.1,3.5
	s1.4,2.3,2.1,3.4s1.4,2.3,2.1,3.4s1.4,2.2,2.1,3.3l1.1,1.6l1.1,1.7l2,2.9l0.1,0.2c0.6,0.9,1.2,1.8,1.8,2.6l0.4,0.5
	c0.7,1,1.5,2,2.2,3.1s1.5,2,2.2,3l1.1,1.5l1.1,1.5c1.1,1.4,2.2,2.9,3.3,4.3c0.4,0.5,0.7,0.9,1.1,1.4l2.2,2.8
	c0.4,0.5,0.7,0.9,1.1,1.3c1.8,2.3,3.7,4.4,5.6,6.6c1.1,1.3,2.2,2.5,3.3,3.8l2.2,2.4c0.4,0.4,0.7,0.8,1.1,1.2
	c0.4,0.4,0.8,0.8,1.2,1.2l0,0l1,1.1c3.5,3.7,6.9,7.1,10.3,10.4c0.5,0.5,1,1,1.6,1.5c3.9,3.8,7.8,7.2,11.5,10.4
	c22.2,19.1,38.6,27.8,38.6,27.8h0.1l1-0.6l0.2-0.2l0.9-0.5l0.5-0.3l0.8-0.5l0.6-0.4c0.5-0.3,1.1-0.7,1.7-1.1l0.8-0.5
	c0.2-0.1,0.4-0.3,0.6-0.4s0.5-0.3,0.8-0.5c4.1-2.6,9.6-6.3,16-11.2c3.7-2.8,7.7-6,12-9.6l3-2.5c0.5-0.4,0.9-0.8,1.4-1.2l1.4-1.2
	l1.6-1.5l1.8-1.6c1.8-1.6,3.6-3.3,5.4-5.1l2.1-2c0.3-0.3,0.6-0.5,0.8-0.8s0.4-0.4,0.6-0.6c0.8-0.7,1.5-1.5,2.3-2.3l1.1-1.1
	c0.8-0.8,1.5-1.6,2.3-2.4c1.2-1.2,2.3-2.4,3.5-3.7c0.6-0.7,1.2-1.3,1.9-2l0.5-0.5l1.5-1.6c1.3-1.5,2.7-2.9,4-4.5l2-2.3l1-1.1l1-1.2
	l1-1.2l1-1.2l1-1.2c1-1.2,2-2.5,3-3.7l2-2.5l1-1.3c1.6-2.2,3.3-4.4,4.9-6.6c0.5-0.6,0.9-1.3,1.4-1.9c0.4-0.6,1-1.5,1.6-2.2l1-1.4
	l1.9-2.8l1.9-2.9l1-1.5c1-1.5,1.9-2.9,2.9-4.4c0.2-0.3,0.5-0.7,0.7-1.1l0.3-0.4c0.1-0.2,0.3-0.4,0.4-0.6l0.5-0.9l1.6-2.5
	c0.1-0.3,0.3-0.5,0.5-0.8l0.8-1.3c0.4-0.6,0.7-1.2,1.1-1.8l0.7-1.2v0l1.4-2.5c0.2-0.4,0.4-0.7,0.6-1.1l0.7-1.2l0.3-0.6
	c0.3-0.6,0.7-1.2,1-1.8l0.5-0.9c0.3-0.5,0.5-1,0.8-1.5c0.4-0.8,0.8-1.5,1.2-2.3l0.6-1.2c0.6-1.2,1.2-2.4,1.8-3.5
	c0.6-1.2,1.1-2.2,1.6-3.3c1.4-2.8,2.7-5.6,4-8.5c0.1-0.3,0.3-0.6,0.4-0.9l0.4-0.9c1.1-2.6,2.3-5.2,3.4-7.8l0.1-0.2
	c0.4-0.9,0.7-1.7,1.1-2.6c0.3-0.7,0.6-1.4,0.9-2.1l0.5-1.3l0.5-1.4c0.5-1.3,1-2.6,1.5-3.9c0.3-0.7,0.5-1.4,0.8-2.1s0.5-1.5,0.8-2.2
	c0.3-0.7,0.5-1.5,0.8-2.2l0.5-1.5l0.3-0.8l0.1-0.2c0-0.1,0.1-0.2,0.1-0.4c0.2-0.6,0.4-1.1,0.6-1.7l0.1-0.4c0.1-0.4,0.3-0.9,0.4-1.3
	s0.2-0.7,0.4-1.1c0.2-0.7,0.5-1.4,0.7-2.2l0.4-1.3c0.2-0.5,0.3-1,0.5-1.5c0.1-0.5,0.3-0.9,0.4-1.3c0,0,0,0,0-0.1
	c0.6-2.1,1.2-4.1,1.9-6.2c0.2-0.6,0.3-1.2,0.5-1.8c0.3-1.2,0.7-2.4,1-3.6l0.3-1.1c0.2-0.7,0.4-1.5,0.6-2.2l0.1-0.5
	c0.1-0.3,0.1-0.6,0.2-0.9c0.1-0.5,0.2-1,0.4-1.5l0.1-0.6c0.2-1,0.5-2,0.7-3c0.1-0.5,0.2-0.9,0.3-1.4l0.3-1.4
	c0.2-0.8,0.3-1.5,0.5-2.2l0.4-1.7c0.2-0.8,0.3-1.5,0.5-2.3c0.2-0.8,0.3-1.5,0.5-2.3l0.5-2.3l0.5-2.3c0.6-2.9,1.1-5.8,1.6-8.8
	c0.2-1,0.3-2,0.5-3c0.1-0.7,0.2-1.4,0.3-2.1c0.1-0.5,0.2-1,0.2-1.5l0.2-1.2c0-0.3,0.1-0.7,0.1-1c0-0.3,0.1-0.9,0.2-1.4l0,0
	c0.1-0.8,0.2-1.6,0.3-2.4c0.1-0.4,0.1-0.9,0.2-1.3c0.1-0.8,0.2-1.6,0.3-2.4c0.1-0.4,0.1-0.8,0.2-1.2l0.1-1.1c0-0.2,0-0.4,0.1-0.5
	v-0.2c0-0.2,0-0.3,0-0.5l0.3-2.6c0-0.5,0.1-0.9,0.1-1.4l0.1-0.5c0-0.5,0.1-1,0.1-1.5c0.1-0.8,0.1-1.5,0.2-2.3l0.1-0.5
	c0-0.1,0-0.1,0-0.2s0-0.3,0-0.5c0.3-2.7,0.5-5.5,0.7-8.3c0.1-0.8,0.1-1.5,0.1-2.3c0-0.6,0.1-1.2,0.1-1.7v-0.3
	c0.1-1.1,0.1-2.3,0.2-3.5c0-0.8,0.1-1.6,0.1-2.5c0,0,0-0.1,0-0.1c0-0.8,0.1-1.6,0.1-2.4c0-1,0.1-2,0.1-3c0-0.6,0-1.2,0-1.8
	c0-0.2,0-0.5,0-0.7c0-0.6,0-1.2,0-1.7V111c0-0.9,0-1.7,0-2.6c0-2,0-4,0-6.1C307.7,99,307.6,95.7,307.6,92.3z M281.4,203.7
	c-10.4,37.3-27.6,72.4-50.6,103.5c-1.1,1.5-2.2,2.9-3.3,4.4l-1.3,1.6l-0.3,0.4l-0.9,1.2l-1.5,1.8c-1,1.2-1.9,2.4-2.9,3.6
	c-0.5,0.6-1,1.2-1.5,1.8l-1.9,2.2c-1.1,1.3-2.1,2.5-3.2,3.7c-0.1,0.2-0.2,0.3-0.4,0.4c-0.9,1-1.8,2-2.7,3l-0.6,0.6l-1.2,1.3
	c-0.4,0.4-0.8,0.8-1.1,1.2l-0.4,0.4c-0.2,0.3-0.5,0.6-0.8,0.8c-0.8,0.9-1.6,1.7-2.4,2.5l-1,1.1c-0.4,0.4-0.7,0.7-1.1,1.1
	c-1,1.1-2.1,2.1-3.1,3.2l-0.9,0.9l-0.1,0.1c-1.9,1.8-3.7,3.6-5.5,5.2c-3.5,3.3-6.8,6.2-10,8.9c-0.6,0.5-1.2,1-1.8,1.5l-1.4,1.2
	l-0.4,0.3l-0.6,0.5l-0.9,0.7l0,0c-2.7,2.2-5.3,4.2-7.7,6l-0.2,0.2l-0.7,0.5l-1.3,0.9l-2,1.5l-0.6,0.5l-2.5,1.8l-1.3,0.9
	c-0.8,0.6-1.6,1.1-2.4,1.7l-1.1,0.7c-1.5,1-2.8,1.8-4,2.6l0,0l0,0l0,0l-0.2-0.1c-13.7-8.8-26.6-18.9-38.5-30
	c-0.6-0.6-1.3-1.2-1.9-1.8c-1.1-1-2.1-2-3.2-3.1c-2.1-2-4.2-4.1-6.3-6.3l-1.7-1.7l-1.6-1.7l-0.1-0.1c-0.5-0.5-1-1.1-1.5-1.6
	l-1.6-1.8l-1.2-1.2c-1.2-1.4-2.5-2.8-3.7-4.2c-0.5-0.6-1.1-1.2-1.6-1.9s-1.2-1.4-1.8-2.1l-1-1.2l-1.1-1.4l-1.8-2.2
	c-0.5-0.6-1-1.3-1.5-1.9c-1.1-1.4-2.3-2.8-3.4-4.3c-1.1-1.5-2.2-3-3.4-4.5C53.8,276,36.7,241,26.3,203.7
	c-12.2-43.3-16.1-90.6-11.7-141v0c7.4,1.2,14.8,1.8,22.3,1.8h2.6c0.9,0,1.9,0,2.9-0.1l1.4,0l1.8-0.1l1.8-0.1l1.1-0.1h0.2h0.4
	l1.3-0.1h0.4l1.4-0.1c0.5,0,1.1-0.1,1.6-0.2s1.3-0.1,2-0.2l1.9-0.2h0.1c0.4-0.1,0.9-0.1,1.3-0.2l1.7-0.2l2.2-0.4l2-0.4l2-0.4
	l0.9-0.2l0.9-0.2c2.9-0.6,5.9-1.3,9-2.2l1.8-0.5h0.1l1.6-0.5l0.5-0.1h0.2l1.5-0.4l1.9-0.6c1.3-0.4,2.5-0.8,3.8-1.3l1.9-0.7l1.4-0.5
	h0c1.8-0.7,3.7-1.4,5.5-2.1c0,0,0.1,0,0.1,0l1.2-0.5l1.3-0.6l1.4-0.6l0,0l1.8-0.8c2.1-0.9,4.2-1.9,6.3-3c1.1-0.5,2.2-1.1,3.2-1.6
	c0.6-0.3,1.3-0.7,1.9-1c13.7-7.4,26.6-16.3,38.4-26.5l0.2-0.2l0.1,0.1c3.3,2.8,6.6,5.5,9.9,8c1,0.8,2.1,1.6,3.1,2.3l1.6,1.2l1.6,1.2
	l3.2,2.2l1.5,1c1.7,1.1,3.3,2.2,4.9,3.2c1,0.7,2.1,1.3,3.1,2c1.7,1,3.4,2,5,3c1.5,0.8,2.9,1.6,4.4,2.4l0.5,0.3l1.5,0.8
	c0.9,0.5,1.7,0.9,2.6,1.3l1.4,0.7l2.2,1l1.1,0.5c1,0.5,1.9,0.9,2.9,1.3l2.2,0.9l0.5,0.2l1.1,0.5l1.3,0.6l2.1,0.8l0.9,0.4l1.2,0.5
	l0.3,0.1c0.5,0.2,1,0.4,1.5,0.6s0.9,0.4,1.4,0.5l0.5,0.2l1.8,0.6c1.2,0.4,2.5,0.8,3.7,1.2l1.3,0.4l0.8,0.2l0.5,0.2l0.3,0.1l2,0.6
	l2.2,0.6l1.6,0.4l0.5,0.1l0.6,0.1l1.6,0.4l2.1,0.5l0.6,0.1l1.2,0.3l0.3,0.1l1,0.2l1,0.2l2.1,0.4l1.2,0.2c0.5,0.1,0.9,0.2,1.4,0.2
	l0.7,0.1l0.7,0.1l1.8,0.3l0.5,0.1l1.7,0.2l1.2,0.2h0.4l0.7,0.1h0.3l1.4,0.1l1.7,0.2l0.6,0h0.1L258,64l2.5,0.2h0.3h0.5l0.8,0
	c1.6,0.1,3.1,0.2,4.6,0.2h1h0.7h2c7.4,0,14.7-0.6,22-1.7l0.4,0C297.5,113,293.6,160.4,281.4,203.7z"/>
<polygon class="st5" points="219.3,295.5 194.3,218.5 259.8,170.9 194.2,170.9 178.9,170.9 178.9,170.9 160.1,113.2 153.8,93.9 
	153.8,93.9 128.8,170.9 128.8,170.9 113.3,170.9 47.9,170.9 61,180.4 113.3,218.5 113.3,218.5 113.3,218.7 90.2,289.7 88.3,295.5 
	113.3,277.4 153.8,247.9 166.9,257.5 194.2,277.3 219.3,295.5 "/>
<polygon class="st6" points="152.9,73.1 165.8,73.1 165.8,73.1 "/>
<polygon class="st5" points="152.9,73.1 152.9,73.1 165.8,73.1 165.8,69.7 165.8,69.7 165.8,69.6 165.8,66.3 152.9,66.3 152.9,56.7 
	167.2,56.7 167.2,53.3 167.2,49.9 167.2,49.9 145.3,49.9 145.3,69.3 145.3,85.3 152.9,85.3 "/>
<path class="st5" d="M53.9,148c1.6,1.6,3.6,2.9,5.7,3.7c2.4,0.9,4.9,1.3,7.4,1.3c1.6,0,3.2-0.1,4.7-0.5c1.3-0.3,2.6-0.8,3.8-1.4
	c1.1-0.6,2.1-1.3,3-2.1c0.9-0.8,1.7-1.7,2.3-2.7l-5.2-4.5l0,0c-0.9,1.2-1.9,2.2-3.2,3c-1.6,0.9-3.5,1.3-5.3,1.2
	c-1.5,0-2.9-0.3-4.2-0.9c-1.3-0.5-2.4-1.4-3.3-2.4c-1-1.1-1.7-2.3-2.2-3.7c-0.5-1.5-0.8-3.1-0.8-4.8c0-1.6,0.2-3.2,0.8-4.7
	c0.5-1.3,1.2-2.6,2.2-3.6c0.9-1,2.1-1.8,3.3-2.3c1.4-0.6,2.8-0.8,4.3-0.8c3.2-0.2,6.3,1.5,8,4.2l3-2.5l2.5-2.1
	c-1.4-2-3.3-3.6-5.4-4.7c-2.5-1.2-5.3-1.8-8.1-1.7c-2.5,0-5,0.4-7.4,1.3c-2.2,0.8-4.1,2.1-5.8,3.8c-1.7,1.7-3,3.6-3.8,5.8
	c-0.9,2.4-1.4,4.9-1.4,7.4c0,2.6,0.4,5.2,1.3,7.7C51,144.4,52.2,146.4,53.9,148z"/>
<polygon class="st5" points="243,137.3 256.2,137.3 256.2,134.3 256.2,130.9 243,130.9 243,123.2 258.1,123.2 258.1,119.9 
	258.1,116.6 235.4,116.6 235.4,152 258.6,152 258.6,148.8 258.6,145.2 243,145.2 "/>
<path class="st5" d="M144.8,327.2l2.6-6.9h12.5l2.6,6.9h8.3l-14.2-35.4h-8.1l1.3,3.1l-13,32.3H144.8z M157.6,314.2h-8l4-10.8h0
	L157.6,314.2z"/>
</svg>
